<?xml version="1.0" standalone="no"?>
<!DOCTYPE svg PUBLIC "-//W3C//DTD SVG 20010904//EN"
 "http://www.w3.org/TR/2001/REC-SVG-20010904/DTD/svg10.dtd">
<svg version="1.0" xmlns="http://www.w3.org/2000/svg"
 width="237.000000pt" height="237.000000pt" viewBox="0 0 237.000000 237.000000"
 preserveAspectRatio="xMidYMid meet">
<metadata>
Created by potrace 1.11, written by Peter Selinger 2001-2013
</metadata>
<g transform="translate(0.000000,237.000000) scale(0.100000,-0.100000)"
fill="#000000" stroke="none">
<path d="M626 2363 c-93 -5 -106 -14 -106 -77 0 -44 -1 -46 -30 -46 -29 0 -30
-1 -30 -50 l0 -50 -35 0 -35 0 0 -50 c0 -49 -1 -50 -30 -50 l-30 0 0 -195 c0
-150 3 -201 14 -218 13 -21 394 -746 490 -933 25 -49 46 -95 46 -102 0 -7 -68
-141 -150 -298 -83 -158 -149 -288 -147 -290 2 -2 276 -3 610 -2 l605 3 -154
297 -155 297 42 83 c82 164 491 943 500 952 5 6 9 99 9 207 l0 198 -32 3 c-32
3 -33 5 -36 51 -3 45 -5 47 -33 47 -28 0 -29 1 -29 50 0 49 -1 50 -30 50 -29
0 -30 2 -30 46 0 84 40 79 -589 80 -306 0 -591 -1 -635 -3z m1024 -293 l0
-280 -460 0 -460 0 0 280 0 280 460 0 460 0 0 -280z m-92 -1073 c-335 -671
-342 -684 -370 -684 -29 0 -36 13 -356 651 -180 358 -328 666 -330 684 l-3 32
700 0 701 0 -342 -683z"/>
<path d="M1105 2301 c-130 -80 -126 -288 7 -357 38 -20 117 -18 158 5 19 10
48 40 65 66 25 40 30 59 30 110 0 114 -75 195 -180 195 -31 0 -61 -7 -80 -19z"/>
<path d="M1020 1860 c0 -25 4 -30 24 -30 26 0 39 20 30 45 -4 8 -17 15 -30 15
-20 0 -24 -5 -24 -30z"/>
<path d="M1114 1876 c-10 -26 4 -48 28 -44 17 2 23 10 23 28 0 18 -6 26 -23
28 -13 2 -25 -3 -28 -12z"/>
<path d="M1206 1875 c-9 -24 4 -45 29 -45 25 0 38 21 29 45 -4 8 -16 15 -29
15 -13 0 -25 -7 -29 -15z"/>
<path d="M1304 1876 c-10 -26 4 -48 28 -44 17 2 23 10 23 28 0 18 -6 26 -23
28 -13 2 -25 -3 -28 -12z"/>
<path d="M1073 1613 c-271 -2 -493 -5 -493 -8 0 -6 329 -663 488 -974 l120
-235 301 602 c166 331 301 606 301 612 0 6 -42 9 -112 8 -62 -2 -335 -4 -605
-5z"/>
</g>
</svg>
